PathFileType	3	(X/Y/Z)	C:\Users\koon_\Desktop\
DataRate	CameraRate	NumFrames	NumMarkers	Units	OrigDataRate	OrigDataStartFrame	OrigNumFrames
100.0	100.0	8	27	mm	100.0	1006	2010	
Frame#	Time	get:LFHD			get:RFHD			get:LBHD			get:RBHD			get:C7			get:T10			get:CLAV			get:STRN			get:RBAK			get:LSHO			get:LUPA			get:LELB			get:LFRA			get:LWRA			get:LWRB			get:LFIN			get:RSHO			get:RUPA			get:RELB			get:RFRA			get:RWRA			get:RWRB			get:RFIN			get:LASI			get:RASI			get:LPSI			get:RPSI			
		X1	Y1	Z1	X2	Y2	Z2	X3	Y3	Z3	X4	Y4	Z4	X5	Y5	Z5	X6	Y6	Z6	X7	Y7	Z7	X8	Y8	Z8	X9	Y9	Z9	X10	Y10	Z10	X11	Y11	Z11	X12	Y12	Z12	X13	Y13	Z13	X14	Y14	Z14	X15	Y15	Z15	X16	Y16	Z16	X17	Y17	Z17	X18	Y18	Z18	X19	Y19	Z19	X20	Y20	Z20	X21	Y21	Z21	X22	Y22	Z22	X23	Y23	Z23	X24	Y24	Z24	X25	Y25	Z25	X26	Y26	Z26	X27	Y27	Z27	
1006	10.05	161.15932	1540.6982	-20.751516	4.0107141	1536.4725	-31.906609	164.19844	1546.3281	-145.22464	39.397713	1554.2079	-171.74898	64.418709	1357.0355	-210.98219	76.633476	1120.1595	-260.37399	69.448074	1291.8811	-22.266911	90.423508	1101.0098	-1.5347252	-6.0796833	1302.8301	-241.53487	181.59062	1379.1696	-142.89833	318.68774	1391.7711	-146.83487	464.20691	1385.4967	-161.59402	374.25012	1465.1881	-164.44742	324.68793	1536.043	-161.06018	380.93338	1574.3904	-161.52438	330.46585	1620.9265	-207.34607	-79.111282	1349.6078	-128.4055	-171.34624	1171.7222	-221.19757	-159.93707	1116.6632	-319.24472	-206.33612	1025.3435	-302.96112	-215.94054	890.19104	-387.62048	-228.32808	946.21185	-436.61423	-263.57608	861.38892	-454.35672	189.95155	904.56537	-122.51522	-88.082222	897.698	-116.61823	100.12665	954.29596	-310.45032	-5.3539515	945.59009	-310.48218
1007	10.06	161.9467	1523.2046	-19.742773	4.7122583	1519.021	-30.830875	164.80183	1528.2637	-144.38919	40.216755	1535.9775	-171.01271	65.629906	1339.8241	-211.39397	77.502052	1099.9396	-263.33148	70.614594	1268.9952	-23.008293	91.248825	1077.6154	-5.0829239	-5.1420999	1284.431	-242.18394	182.54922	1361.4659	-141.94824	320.57867	1371.9661	-143.85118	465.25021	1363.9674	-157.93687	376.1723	1444.8459	-159.62418	327.47604	1516.4996	-155.21219	384.20468	1554.0083	-155.2794	334.93738	1601.2191	-201.41872	-78.859825	1331.8992	-128.90752	-170.94095	1151.9863	-221.02362	-161.12953	1098.1586	-319.46948	-207.05588	1006.6295	-302.57852	-218.59668	871.80829	-386.06622	-229.17076	927.30432	-435.97635	-265.47678	843.86835	-453.4733	191.42865	883.22736	-127.86674	-88.388306	877.54236	-121.79263	103.21622	932.10138	-315.94714	-3.1650195	923.54401	-316.73849
1008	10.07	162.62238	1506.4611	-19.010778	5.4995146	1502.3536	-30.715067	165.18304	1511.1157	-143.69313	41.098072	1518.6256	-170.1494	66.951553	1323.5198	-211.48445	78.233063	1079.9214	-267.01172	71.063072	1246.0668	-24.323175	91.507515	1054.3159	-9.4399624	-3.6580701	1266.4333	-242.6765	183.46107	1345.3292	-141.6058	322.79825	1352.4567	-140.79303	466.01706	1342.1147	-154.60341	377.85593	1424.1979	-154.63091	330.21326	1496.8459	-149.04643	387.62466	1533.1937	-148.8313	340.13626	1580.9398	-195.30859	-78.960831	1314.9596	-129.67961	-170.61139	1132.5916	-221.40269	-162.37566	1080.1266	-320.01093	-207.96062	988.22913	-302.2446	-221.55191	853.57324	-383.89725	-230.47623	908.40295	-434.94592	-268.08521	826.31616	-451.80438	192.82692	862.46246	-133.08521	-88.443481	856.89716	-127.25919	105.34919	909.79089	-321.65851	-1.2261627	901.01636	-323.50604
1009	10.08	163.19232	1490.1731	-18.782875	5.9505191	1486.4063	-30.060446	165.53069	1495.0513	-143.36598	41.586994	1502.6549	-169.6053	67.953087	1308.4426	-211.26425	78.826454	1060.7239	-271.78131	70.569908	1223.8806	-26.601948	91.585815	1031.7443	-13.976027	-1.7436708	1249.5812	-242.14217	184.33267	1329.5822	-141.20912	325.05212	1333.5505	-138.2191	466.62543	1320.1641	-151.31435	379.54871	1403.375	-149.50014	333.03665	1477.0337	-142.71857	391.07416	1512.1251	-142.18063	345.98456	1560.6454	-188.91927	-79.251854	1298.5908	-130.55499	-170.29424	1114.8713	-222.39201	-163.76665	1062.692	-320.98138	-209.1851	970.67126	-301.73422	-224.57025	835.64764	-381.20917	-232.34215	889.68451	-433.50998	-271.18198	808.6123	-448.85306	194.79253	843.453	-137.15248	-87.877335	837.41895	-132.58501	105.09914	891.43951	-327.79492	-0.86932713	880.4566	-329.89459
1010	10.09	163.68831	1475.3531	-18.89274	6.2002068	1472.2498	-29.668509	165.48073	1479.8588	-143.5531	41.726521	1488.0421	-169.54112	67.945686	1295.0641	-210.83229	79.030861	1044.854	-277.02426	70.747475	1203.5339	-29.749157	91.67662	1010.5438	-18.249832	-0.07448262	1234.0775	-241.442	185.37633	1315.0967	-141.07956	326.95093	1315.3173	-136.73181	467.45367	1298.3348	-148.21477	381.37421	1382.6475	-144.66277	336.11261	1457.1442	-136.57132	394.73651	1491.0483	-135.17763	352.63208	1540.5911	-182.11794	-79.661713	1283.6083	-130.95609	-170.60094	1099.6715	-223.93777	-165.02295	1045.8401	-322.17087	-210.70329	954.13342	-301.36432	-227.59346	818.43451	-377.98819	-234.48769	871.38495	-431.57434	-274.91656	791.2326	-444.50662	197.02377	826.85846	-140.61601	-86.63755	820.25049	-137.52957	105.81498	879.2511	-334.10669	-1.9861232	865.17065	-334.65427
1011	10.1	163.67686	1463.3136	-19.106226	6.085391	1460.5216	-28.989586	164.98553	1466.9363	-143.88554	41.48407	1475.4821	-169.8287	67.979881	1283.8743	-209.99297	78.178635	1033.8308	-281.32474	71.745132	1187.37	-31.71653	91.943321	991.26923	-21.786278	-1.2121884	1220.8124	-242.3629	187.00972	1301.7896	-139.24829	329.01172	1298.0365	-135.69748	468.77646	1276.7463	-145.3116	383.69766	1362.2273	-140.16768	339.55713	1437.5731	-130.78691	398.91315	1470.1842	-127.53798	360.02298	1520.6299	-174.73544	-80.023148	1270.1667	-130.82877	-171.51466	1085.7278	-225.96016	-166.37971	1029.8608	-323.64362	-212.34105	938.9455	-300.69818	-230.41719	802.10162	-373.96671	-236.8685	853.79968	-429.08774	-278.84015	774.93146	-438.66879	199.54036	814.633	-143.76588	-85.336052	805.74451	-141.93492	106.23207	868.37854	-339.72217	-2.0602033	852.74854	-339.28848
1012	10.11	163.17447	1450.9749	-19.953459	5.7397876	1447.9032	-29.842279	164.61971	1455.1013	-144.66142	40.5345	1463.536	-170.17659	68.462814	1273.8943	-208.83333	76.002991	1025.2064	-284.65613	71.425499	1172.1913	-32.031601	92.550934	975.65405	-24.323935	-3.6574402	1210.7535	-244.20694	188.61301	1288.5244	-137.18118	330.88504	1280.9117	-134.26367	470.36652	1255.5254	-142.87735	386.32574	1342.2546	-135.3002	343.45679	1418.4753	-125.09057	403.40549	1449.5057	-119.72475	367.75421	1501.257	-166.96581	-80.299095	1257.7909	-130.28889	-173.07843	1073.1854	-227.56537	-167.74815	1015.3675	-324.67868	-214.2453	925.12903	-299.81967	-232.89859	787.09869	-369.22192	-239.47281	837.24701	-425.40738	-282.92529	760.12805	-431.45822	200.84019	806.5874	-146.46844	-83.740074	794.39575	-145.52342	105.59482	857.28094	-343.62732	-1.595414	840.54883	-342.67767
1013	10.12	162.60706	1439.1532	-21.338875	4.8091083	1436.467	-30.608727	163.44406	1443.337	-145.82445	39.241863	1451.8219	-171.0513	68.880119	1264.4167	-208.06787	74.291504	1016.5109	-288.02841	70.31073	1158.6208	-32.42046	92.094353	962.43719	-26.26384	-5.3185182	1202.783	-246.12181	190.53015	1276.1964	-134.90567	332.93713	1264.1227	-133.69235	471.86612	1234.7166	-140.65044	389.31229	1322.8225	-132.10289	347.54355	1399.9608	-119.70519	408.19409	1429.2144	-112.20789	375.3006	1482.8799	-159.0273	-80.888344	1246.7947	-130.10919	-174.97562	1062.1167	-228.48637	-169.48824	1002.2886	-325.07385	-216.04848	912.74017	-298.04712	-235.50809	773.43347	-363.82455	-242.22728	822.11176	-421.18747	-287.13898	746.46558	-423.74826	201.03044	801.36646	-148.7616	-82.386581	786.073	-148.56009	105.68934	845.98529	-346.87326	-0.51800072	828.96814	-345.34698
